<mxfile host="app.diagrams.net" modified="2022-09-15T08:40:39.673Z" agent="5.0 (Macintosh)" etag="N2at3H4974IXEFhZLpuY" version="20.2.8" type="github">
  <diagram id="VZECOMdQH2uVjotrN1ua" name="第 1 页">
    <mxGraphModel dx="1621" dy="1060" grid="1" gridSize="10" guides="1" tooltips="1" connect="1" arrows="1" fold="1" page="1" pageScale="1" pageWidth="2000" pageHeight="3000" math="0" shadow="0">
      <root>
        <mxCell id="0" />
        <mxCell id="1" parent="0" />
        <mxCell id="XDiT6CNxHAlSE8s8ffrH-1" value="" style="rounded=1;whiteSpace=wrap;html=1;" vertex="1" parent="1">
          <mxGeometry x="50" y="250" width="480" height="480" as="geometry" />
        </mxCell>
        <mxCell id="XDiT6CNxHAlSE8s8ffrH-2" value="BlockManagerMasterEndpoint" style="rounded=1;whiteSpace=wrap;html=1;fontSize=18;" vertex="1" parent="1">
          <mxGeometry x="70" y="290" width="280" height="60" as="geometry" />
        </mxCell>
        <mxCell id="XDiT6CNxHAlSE8s8ffrH-3" value="Driver" style="text;html=1;strokeColor=none;fillColor=none;align=center;verticalAlign=middle;whiteSpace=wrap;rounded=0;fontSize=18;" vertex="1" parent="1">
          <mxGeometry x="280" y="690" width="60" height="30" as="geometry" />
        </mxCell>
        <mxCell id="XDiT6CNxHAlSE8s8ffrH-4" value="" style="rounded=1;whiteSpace=wrap;html=1;" vertex="1" parent="1">
          <mxGeometry x="833" y="150" width="480" height="480" as="geometry" />
        </mxCell>
        <mxCell id="XDiT6CNxHAlSE8s8ffrH-5" value="Executor" style="text;html=1;strokeColor=none;fillColor=none;align=center;verticalAlign=middle;whiteSpace=wrap;rounded=0;fontSize=18;" vertex="1" parent="1">
          <mxGeometry x="1153" y="590" width="60" height="30" as="geometry" />
        </mxCell>
        <mxCell id="XDiT6CNxHAlSE8s8ffrH-35" style="edgeStyle=orthogonalEdgeStyle;curved=1;rounded=0;orthogonalLoop=1;jettySize=auto;html=1;exitX=0.5;exitY=1;exitDx=0;exitDy=0;fontSize=18;elbow=vertical;" edge="1" parent="1" source="XDiT6CNxHAlSE8s8ffrH-7" target="XDiT6CNxHAlSE8s8ffrH-9">
          <mxGeometry relative="1" as="geometry" />
        </mxCell>
        <mxCell id="XDiT6CNxHAlSE8s8ffrH-7" value="" style="rounded=1;whiteSpace=wrap;html=1;fontSize=18;" vertex="1" parent="1">
          <mxGeometry x="852" y="400" width="320" height="100" as="geometry" />
        </mxCell>
        <mxCell id="XDiT6CNxHAlSE8s8ffrH-17" style="rounded=0;orthogonalLoop=1;jettySize=auto;html=1;exitX=0;exitY=0.5;exitDx=0;exitDy=0;entryX=1;entryY=0.5;entryDx=0;entryDy=0;fontSize=18;edgeStyle=orthogonalEdgeStyle;elbow=vertical;curved=1;" edge="1" parent="1" source="XDiT6CNxHAlSE8s8ffrH-6" target="XDiT6CNxHAlSE8s8ffrH-2">
          <mxGeometry relative="1" as="geometry" />
        </mxCell>
        <mxCell id="XDiT6CNxHAlSE8s8ffrH-18" value="上报block状态" style="edgeLabel;html=1;align=center;verticalAlign=middle;resizable=0;points=[];fontSize=18;" vertex="1" connectable="0" parent="XDiT6CNxHAlSE8s8ffrH-17">
          <mxGeometry x="0.3039" relative="1" as="geometry">
            <mxPoint x="140" y="89" as="offset" />
          </mxGeometry>
        </mxCell>
        <mxCell id="XDiT6CNxHAlSE8s8ffrH-6" value="BlockManagerMaster" style="rounded=1;whiteSpace=wrap;html=1;fontSize=18;" vertex="1" parent="1">
          <mxGeometry x="862" y="410" width="280" height="60" as="geometry" />
        </mxCell>
        <mxCell id="XDiT6CNxHAlSE8s8ffrH-8" value="BlockManager" style="text;html=1;strokeColor=none;fillColor=none;align=center;verticalAlign=middle;whiteSpace=wrap;rounded=0;fontSize=18;" vertex="1" parent="1">
          <mxGeometry x="1062" y="470" width="60" height="30" as="geometry" />
        </mxCell>
        <mxCell id="XDiT6CNxHAlSE8s8ffrH-43" style="edgeStyle=orthogonalEdgeStyle;curved=1;rounded=0;orthogonalLoop=1;jettySize=auto;html=1;exitX=0;exitY=0.5;exitDx=0;exitDy=0;entryX=1;entryY=0.5;entryDx=0;entryDy=0;fontSize=18;elbow=vertical;" edge="1" parent="1" source="XDiT6CNxHAlSE8s8ffrH-9" target="XDiT6CNxHAlSE8s8ffrH-42">
          <mxGeometry relative="1" as="geometry" />
        </mxCell>
        <mxCell id="XDiT6CNxHAlSE8s8ffrH-44" value="获取block" style="edgeLabel;html=1;align=center;verticalAlign=middle;resizable=0;points=[];fontSize=18;" vertex="1" connectable="0" parent="XDiT6CNxHAlSE8s8ffrH-43">
          <mxGeometry x="-0.1715" y="-7" relative="1" as="geometry">
            <mxPoint x="36" y="-13" as="offset" />
          </mxGeometry>
        </mxCell>
        <mxCell id="XDiT6CNxHAlSE8s8ffrH-9" value="NettyBlockTransferService" style="rounded=1;whiteSpace=wrap;html=1;fontSize=18;" vertex="1" parent="1">
          <mxGeometry x="863" y="540" width="280" height="60" as="geometry" />
        </mxCell>
        <mxCell id="XDiT6CNxHAlSE8s8ffrH-26" style="edgeStyle=orthogonalEdgeStyle;curved=1;rounded=0;orthogonalLoop=1;jettySize=auto;html=1;exitX=0.5;exitY=0;exitDx=0;exitDy=0;entryX=0.5;entryY=1;entryDx=0;entryDy=0;fontSize=18;elbow=vertical;" edge="1" parent="1" source="XDiT6CNxHAlSE8s8ffrH-10" target="XDiT6CNxHAlSE8s8ffrH-2">
          <mxGeometry relative="1" as="geometry" />
        </mxCell>
        <mxCell id="XDiT6CNxHAlSE8s8ffrH-10" value="BlockManager" style="rounded=1;whiteSpace=wrap;html=1;fontSize=18;" vertex="1" parent="1">
          <mxGeometry x="70" y="400" width="200" height="60" as="geometry" />
        </mxCell>
        <mxCell id="XDiT6CNxHAlSE8s8ffrH-11" value="" style="rounded=1;whiteSpace=wrap;html=1;" vertex="1" parent="1">
          <mxGeometry x="833" y="740" width="400" height="240" as="geometry" />
        </mxCell>
        <mxCell id="XDiT6CNxHAlSE8s8ffrH-12" value="Executor" style="text;html=1;strokeColor=none;fillColor=none;align=center;verticalAlign=middle;whiteSpace=wrap;rounded=0;fontSize=18;" vertex="1" parent="1">
          <mxGeometry x="1153" y="760" width="60" height="30" as="geometry" />
        </mxCell>
        <mxCell id="XDiT6CNxHAlSE8s8ffrH-21" style="edgeStyle=orthogonalEdgeStyle;curved=1;rounded=0;orthogonalLoop=1;jettySize=auto;html=1;exitX=0.5;exitY=0;exitDx=0;exitDy=0;fontSize=18;elbow=vertical;" edge="1" parent="1" source="XDiT6CNxHAlSE8s8ffrH-13" target="XDiT6CNxHAlSE8s8ffrH-16">
          <mxGeometry relative="1" as="geometry" />
        </mxCell>
        <mxCell id="XDiT6CNxHAlSE8s8ffrH-13" value="" style="rounded=1;whiteSpace=wrap;html=1;fontSize=18;" vertex="1" parent="1">
          <mxGeometry x="843" y="870" width="320" height="100" as="geometry" />
        </mxCell>
        <mxCell id="XDiT6CNxHAlSE8s8ffrH-19" style="edgeStyle=orthogonalEdgeStyle;curved=1;rounded=0;orthogonalLoop=1;jettySize=auto;html=1;exitX=0;exitY=0.5;exitDx=0;exitDy=0;entryX=1;entryY=0.75;entryDx=0;entryDy=0;fontSize=18;elbow=vertical;" edge="1" parent="1" source="XDiT6CNxHAlSE8s8ffrH-14" target="XDiT6CNxHAlSE8s8ffrH-2">
          <mxGeometry relative="1" as="geometry" />
        </mxCell>
        <mxCell id="XDiT6CNxHAlSE8s8ffrH-20" value="获取block位置" style="edgeLabel;html=1;align=center;verticalAlign=middle;resizable=0;points=[];fontSize=18;" vertex="1" connectable="0" parent="XDiT6CNxHAlSE8s8ffrH-19">
          <mxGeometry x="-0.1954" y="-4" relative="1" as="geometry">
            <mxPoint x="134" y="106" as="offset" />
          </mxGeometry>
        </mxCell>
        <mxCell id="XDiT6CNxHAlSE8s8ffrH-14" value="BlockManagerMaster" style="rounded=1;whiteSpace=wrap;html=1;fontSize=18;" vertex="1" parent="1">
          <mxGeometry x="853" y="880" width="280" height="60" as="geometry" />
        </mxCell>
        <mxCell id="XDiT6CNxHAlSE8s8ffrH-15" value="BlockManager" style="text;html=1;strokeColor=none;fillColor=none;align=center;verticalAlign=middle;whiteSpace=wrap;rounded=0;fontSize=18;" vertex="1" parent="1">
          <mxGeometry x="1053" y="940" width="60" height="30" as="geometry" />
        </mxCell>
        <mxCell id="XDiT6CNxHAlSE8s8ffrH-16" value="NettyBlockTransferService" style="rounded=1;whiteSpace=wrap;html=1;fontSize=18;" vertex="1" parent="1">
          <mxGeometry x="853" y="760" width="280" height="60" as="geometry" />
        </mxCell>
        <mxCell id="XDiT6CNxHAlSE8s8ffrH-25" style="edgeStyle=orthogonalEdgeStyle;curved=1;rounded=0;orthogonalLoop=1;jettySize=auto;html=1;exitX=0.5;exitY=0;exitDx=0;exitDy=0;entryX=0.5;entryY=1;entryDx=0;entryDy=0;fontSize=18;elbow=vertical;" edge="1" parent="1" source="XDiT6CNxHAlSE8s8ffrH-22" target="XDiT6CNxHAlSE8s8ffrH-10">
          <mxGeometry relative="1" as="geometry" />
        </mxCell>
        <mxCell id="XDiT6CNxHAlSE8s8ffrH-22" value="TorrentBroadcast" style="rounded=1;whiteSpace=wrap;html=1;fontSize=18;" vertex="1" parent="1">
          <mxGeometry x="70" y="510" width="200" height="60" as="geometry" />
        </mxCell>
        <mxCell id="XDiT6CNxHAlSE8s8ffrH-24" style="edgeStyle=orthogonalEdgeStyle;curved=1;rounded=0;orthogonalLoop=1;jettySize=auto;html=1;exitX=0.5;exitY=0;exitDx=0;exitDy=0;entryX=0.5;entryY=1;entryDx=0;entryDy=0;fontSize=18;elbow=vertical;" edge="1" parent="1" source="XDiT6CNxHAlSE8s8ffrH-23" target="XDiT6CNxHAlSE8s8ffrH-22">
          <mxGeometry relative="1" as="geometry" />
        </mxCell>
        <mxCell id="XDiT6CNxHAlSE8s8ffrH-23" value="BroadcastManager" style="rounded=1;whiteSpace=wrap;html=1;fontSize=18;" vertex="1" parent="1">
          <mxGeometry x="70" y="620" width="200" height="60" as="geometry" />
        </mxCell>
        <mxCell id="XDiT6CNxHAlSE8s8ffrH-28" value="&amp;lt;init&amp;gt;" style="edgeLabel;html=1;align=center;verticalAlign=middle;resizable=0;points=[];fontSize=18;" vertex="1" connectable="0" parent="1">
          <mxGeometry x="230" y="595" as="geometry">
            <mxPoint x="8" y="-3" as="offset" />
          </mxGeometry>
        </mxCell>
        <mxCell id="XDiT6CNxHAlSE8s8ffrH-29" value="put" style="edgeLabel;html=1;align=center;verticalAlign=middle;resizable=0;points=[];fontSize=18;" vertex="1" connectable="0" parent="1">
          <mxGeometry x="230" y="490" as="geometry">
            <mxPoint x="8" y="-3" as="offset" />
          </mxGeometry>
        </mxCell>
        <mxCell id="XDiT6CNxHAlSE8s8ffrH-30" value="reportBlockStatus" style="edgeLabel;html=1;align=center;verticalAlign=middle;resizable=0;points=[];fontSize=18;" vertex="1" connectable="0" parent="1">
          <mxGeometry x="282" y="380" as="geometry">
            <mxPoint y="-5" as="offset" />
          </mxGeometry>
        </mxCell>
        <mxCell id="XDiT6CNxHAlSE8s8ffrH-33" style="edgeStyle=orthogonalEdgeStyle;curved=1;rounded=0;orthogonalLoop=1;jettySize=auto;html=1;exitX=0.5;exitY=1;exitDx=0;exitDy=0;fontSize=18;elbow=vertical;" edge="1" parent="1" source="XDiT6CNxHAlSE8s8ffrH-31" target="XDiT6CNxHAlSE8s8ffrH-32">
          <mxGeometry relative="1" as="geometry" />
        </mxCell>
        <mxCell id="XDiT6CNxHAlSE8s8ffrH-31" value="Task" style="rounded=1;whiteSpace=wrap;html=1;fontSize=18;" vertex="1" parent="1">
          <mxGeometry x="863" y="160" width="160" height="60" as="geometry" />
        </mxCell>
        <mxCell id="XDiT6CNxHAlSE8s8ffrH-34" style="edgeStyle=orthogonalEdgeStyle;curved=1;rounded=0;orthogonalLoop=1;jettySize=auto;html=1;exitX=0.5;exitY=1;exitDx=0;exitDy=0;fontSize=18;elbow=vertical;" edge="1" parent="1" source="XDiT6CNxHAlSE8s8ffrH-32" target="XDiT6CNxHAlSE8s8ffrH-7">
          <mxGeometry relative="1" as="geometry" />
        </mxCell>
        <mxCell id="XDiT6CNxHAlSE8s8ffrH-38" style="edgeStyle=orthogonalEdgeStyle;curved=1;rounded=0;orthogonalLoop=1;jettySize=auto;html=1;exitX=1;exitY=0.5;exitDx=0;exitDy=0;fontSize=18;elbow=vertical;" edge="1" parent="1" source="XDiT6CNxHAlSE8s8ffrH-32" target="XDiT6CNxHAlSE8s8ffrH-37">
          <mxGeometry relative="1" as="geometry" />
        </mxCell>
        <mxCell id="XDiT6CNxHAlSE8s8ffrH-32" value="TorrentBroadcast" style="rounded=1;whiteSpace=wrap;html=1;fontSize=18;" vertex="1" parent="1">
          <mxGeometry x="862" y="280" width="160" height="60" as="geometry" />
        </mxCell>
        <mxCell id="XDiT6CNxHAlSE8s8ffrH-36" value="getValue" style="edgeLabel;html=1;align=center;verticalAlign=middle;resizable=0;points=[];fontSize=18;" vertex="1" connectable="0" parent="1">
          <mxGeometry x="982" y="250" as="geometry" />
        </mxCell>
        <mxCell id="XDiT6CNxHAlSE8s8ffrH-37" value="BroadcastManager" style="rounded=1;whiteSpace=wrap;html=1;fontSize=18;" vertex="1" parent="1">
          <mxGeometry x="1142" y="310" width="160" height="60" as="geometry" />
        </mxCell>
        <mxCell id="XDiT6CNxHAlSE8s8ffrH-39" value="获取cache" style="edgeLabel;html=1;align=center;verticalAlign=middle;resizable=0;points=[];fontSize=18;" vertex="1" connectable="0" parent="1">
          <mxGeometry x="1094" y="299" as="geometry" />
        </mxCell>
        <mxCell id="XDiT6CNxHAlSE8s8ffrH-40" value="获取远程block" style="edgeLabel;html=1;align=center;verticalAlign=middle;resizable=0;points=[];fontSize=18;" vertex="1" connectable="0" parent="1">
          <mxGeometry x="1073" y="382" as="geometry" />
        </mxCell>
        <mxCell id="XDiT6CNxHAlSE8s8ffrH-41" value="获取远程block" style="edgeLabel;html=1;align=center;verticalAlign=middle;resizable=0;points=[];fontSize=18;" vertex="1" connectable="0" parent="1">
          <mxGeometry x="1072" y="520" as="geometry" />
        </mxCell>
        <mxCell id="XDiT6CNxHAlSE8s8ffrH-42" value="NettyBlockRpcServer" style="rounded=1;whiteSpace=wrap;html=1;fontSize=18;" vertex="1" parent="1">
          <mxGeometry x="310" y="510" width="200" height="60" as="geometry" />
        </mxCell>
      </root>
    </mxGraphModel>
  </diagram>
</mxfile>
